REM DIRINDEX 1\3,1\2\4,1\2\5,1\2\6
REM DIRNAME cjc137,folder01,folder02,folder03,folder04,folder05
TITLE ""
FILE "134.mp3" MP3
  TRACK 01 AUDIO
    TITLE "4:cjc137_5665"
    INDEX 01 00:00:00
  TRACK 02 AUDIO
    TITLE "0:"
    INDEX 01 00:01:40
  TRACK 03 AUDIO
    TITLE "6:cjc137_5666"
    INDEX 01 00:01:46
  TRACK 04 AUDIO
    TITLE "0:"
    INDEX 01 00:03:08
  TRACK 05 AUDIO
    TITLE "5:cjc137_5667"
    INDEX 01 00:03:17
  TRACK 06 AUDIO
    TITLE "0:"
    INDEX 01 00:04:56
  TRACK 07 AUDIO
    TITLE "4:cjc137_5668"
    INDEX 01 00:05:65
  TRACK 08 AUDIO
    TITLE "0:"
    INDEX 01 00:07:00
  TRACK 09 AUDIO
    TITLE "6:cjc137_5669"
    INDEX 01 00:07:17
  TRACK 10 AUDIO
    TITLE "0:"
    INDEX 01 00:08:66
  TRACK 11 AUDIO
    TITLE "5:cjc137_5670"
    INDEX 01 00:08:73
  TRACK 12 AUDIO
    TITLE "0:"
    INDEX 01 00:10:08
  TRACK 13 AUDIO
    TITLE "4:cjc137_5671"
    INDEX 01 00:11:27
  TRACK 14 AUDIO
    TITLE "0:"
    INDEX 01 00:12:38
  TRACK 15 AUDIO
    TITLE "6:cjc137_5672"
    INDEX 01 00:12:42
  TRACK 16 AUDIO
    TITLE "0:"
    INDEX 01 00:13:69
  TRACK 17 AUDIO
    TITLE "5:cjc137_5673"
    INDEX 01 00:14:02
  TRACK 18 AUDIO
    TITLE "0:"
    INDEX 01 00:15:11
  TRACK 19 AUDIO
    TITLE "4:cjc137_5674"
    INDEX 01 00:16:18
  TRACK 20 AUDIO
    TITLE "0:"
    INDEX 01 00:17:29
  TRACK 21 AUDIO
    TITLE "6:cjc137_5675"
    INDEX 01 00:17:41
  TRACK 22 AUDIO
    TITLE "0:"
    INDEX 01 00:18:27
  TRACK 23 AUDIO
    TITLE "5:cjc137_5676"
    INDEX 01 00:18:33
  TRACK 24 AUDIO
    TITLE "0:"
    INDEX 01 00:19:44
  TRACK 25 AUDIO
    TITLE "4:cjc137_5677"
    INDEX 01 00:20:59
  TRACK 26 AUDIO
    TITLE "0:"
    INDEX 01 00:21:70
  TRACK 27 AUDIO
    TITLE "6:cjc137_5678"
    INDEX 01 00:21:74
  TRACK 28 AUDIO
    TITLE "0:"
    INDEX 01 00:23:24
  TRACK 29 AUDIO
    TITLE "5:cjc137_5679"
    INDEX 01 00:23:32
  TRACK 30 AUDIO
    TITLE "0:"
    INDEX 01 00:24:43
  TRACK 31 AUDIO
    TITLE "4:cjc137_5680"
    INDEX 01 00:25:48
  TRACK 32 AUDIO
    TITLE "0:"
    INDEX 01 00:26:67
  TRACK 33 AUDIO
    TITLE "6:cjc137_5681"
    INDEX 01 00:26:73
  TRACK 34 AUDIO
    TITLE "0:"
    INDEX 01 00:28:37
  TRACK 35 AUDIO
    TITLE "5:cjc137_5682"
    INDEX 01 00:28:43
  TRACK 36 AUDIO
    TITLE "0:"
    INDEX 01 00:29:62
  TRACK 37 AUDIO
    TITLE "4:cjc137_5683"
    INDEX 01 00:30:73
  TRACK 38 AUDIO
    TITLE "0:"
    INDEX 01 00:32:13
  TRACK 39 AUDIO
    TITLE "6:cjc137_5684"
    INDEX 01 00:32:23
  TRACK 40 AUDIO
    TITLE "0:"
    INDEX 01 00:33:34
  TRACK 41 AUDIO
    TITLE "5:cjc137_5685"
    INDEX 01 00:33:44
  TRACK 42 AUDIO
    TITLE "0:"
    INDEX 01 00:34:59
  TRACK 43 AUDIO
    TITLE "4:cjc137_5686"
    INDEX 01 00:35:72
  TRACK 44 AUDIO
    TITLE "0:"
    INDEX 01 00:37:12
  TRACK 45 AUDIO
    TITLE "6:cjc137_5687"
    INDEX 01 00:37:18
  TRACK 46 AUDIO
    TITLE "0:"
    INDEX 01 00:38:47
  TRACK 47 AUDIO
    TITLE "5:cjc137_5688"
    INDEX 01 00:38:55
  TRACK 48 AUDIO
    TITLE "0:"
    INDEX 01 00:39:70
  TRACK 49 AUDIO
    TITLE "4:cjc137_5689"
    INDEX 01 00:41:04
  TRACK 50 AUDIO
    TITLE "0:"
    INDEX 01 00:42:08
  TRACK 51 AUDIO
    TITLE "6:cjc137_5690"
    INDEX 01 00:42:18
  TRACK 52 AUDIO
    TITLE "0:"
    INDEX 01 00:43:25
  TRACK 53 AUDIO
    TITLE "5:cjc137_5691"
    INDEX 01 00:43:35
  TRACK 54 AUDIO
    TITLE "0:"
    INDEX 01 00:44:40
  TRACK 55 AUDIO
    TITLE "4:cjc137_5692"
    INDEX 01 00:45:49
  TRACK 56 AUDIO
    TITLE "0:"
    INDEX 01 00:47:01
  TRACK 57 AUDIO
    TITLE "6:cjc137_5693"
    INDEX 01 00:47:07
  TRACK 58 AUDIO
    TITLE "0:"
    INDEX 01 00:48:36
  TRACK 59 AUDIO
    TITLE "5:cjc137_5694"
    INDEX 01 00:48:42
  TRACK 60 AUDIO
    TITLE "0:"
    INDEX 01 00:49:69
  TRACK 61 AUDIO
    TITLE "4:cjc137_5695"
    INDEX 01 00:50:74
  TRACK 62 AUDIO
    TITLE "0:"
    INDEX 01 00:52:12
  TRACK 63 AUDIO
    TITLE "6:cjc137_5696"
    INDEX 01 00:52:16
  TRACK 64 AUDIO
    TITLE "0:"
    INDEX 01 00:53:35
  TRACK 65 AUDIO
    TITLE "5:cjc137_5697"
    INDEX 01 00:53:41
  TRACK 66 AUDIO
    TITLE "0:"
    INDEX 01 00:54:56
  TRACK 67 AUDIO
    TITLE "4:cjc137_5698"
    INDEX 01 00:55:59
  TRACK 68 AUDIO
    TITLE "0:"
    INDEX 01 00:56:72
  TRACK 69 AUDIO
    TITLE "6:cjc137_5699"
    INDEX 01 00:57:01
  TRACK 70 AUDIO
    TITLE "0:"
    INDEX 01 00:58:11
  TRACK 71 AUDIO
    TITLE "5:cjc137_5700"
    INDEX 01 00:58:17
  TRACK 72 AUDIO
    TITLE "0:"
    INDEX 01 00:59:28
  TRACK 73 AUDIO
    TITLE "4:cjc137_5701"
    INDEX 01 01:00:37
  TRACK 74 AUDIO
    TITLE "0:"
    INDEX 01 01:01:48
  TRACK 75 AUDIO
    TITLE "6:cjc137_5702"
    INDEX 01 01:01:54
  TRACK 76 AUDIO
    TITLE "0:"
    INDEX 01 01:02:71
  TRACK 77 AUDIO
    TITLE "5:cjc137_5703"
    INDEX 01 01:03:02
  TRACK 78 AUDIO
    TITLE "0:"
    INDEX 01 01:04:15
  TRACK 79 AUDIO
    TITLE "4:cjc137_5704"
    INDEX 01 01:05:22
  TRACK 80 AUDIO
    TITLE "0:"
    INDEX 01 01:06:34
  TRACK 81 AUDIO
    TITLE "6:cjc137_5705"
    INDEX 01 01:06:45
  TRACK 82 AUDIO
    TITLE "0:"
    INDEX 01 01:07:49
  TRACK 83 AUDIO
    TITLE "5:cjc137_5706"
    INDEX 01 01:07:53
  TRACK 84 AUDIO
    TITLE "0:"
    INDEX 01 01:08:68
  TRACK 85 AUDIO
    TITLE "4:cjc137_5707"
    INDEX 01 01:10:02
  TRACK 86 AUDIO
    TITLE "0:"
    INDEX 01 01:11:15
  TRACK 87 AUDIO
    TITLE "6:cjc137_5708"
    INDEX 01 01:11:23
  TRACK 88 AUDIO
    TITLE "0:"
    INDEX 01 01:12:38
  TRACK 89 AUDIO
    TITLE "5:cjc137_5709"
    INDEX 01 01:12:42
  TRACK 90 AUDIO
    TITLE "0:"
    INDEX 01 01:13:55
  TRACK 91 AUDIO
    TITLE "4:cjc137_5710"
    INDEX 01 01:14:65
  TRACK 92 AUDIO
    TITLE "0:"
    INDEX 01 01:16:05
  TRACK 93 AUDIO
    TITLE "6:cjc137_5711"
    INDEX 01 01:16:14
  TRACK 94 AUDIO
    TITLE "0:"
    INDEX 01 01:17:24
  TRACK 95 AUDIO
    TITLE "5:cjc137_5712"
    INDEX 01 01:17:32
  TRACK 96 AUDIO
    TITLE "0:"
    INDEX 01 01:18:47
  TRACK 97 AUDIO
    TITLE "4:cjc137_5713"
    INDEX 01 01:19:58
  TRACK 98 AUDIO
    TITLE "0:"
    INDEX 01 01:20:67
  TRACK 99 AUDIO
    TITLE "6:cjc137_5714"
    INDEX 01 01:21:02
  TRACK 100 AUDIO
    TITLE "0:"
    INDEX 01 01:22:23
  TRACK 101 AUDIO
    TITLE "5:cjc137_5715"
    INDEX 01 01:22:33
  TRACK 102 AUDIO
    TITLE "0:"
    INDEX 01 01:23:40
  TRACK 103 AUDIO
    TITLE "4:cjc137_5716"
    INDEX 01 01:24:53
  TRACK 104 AUDIO
    TITLE "0:"
    INDEX 01 01:25:45
  TRACK 105 AUDIO
    TITLE "6:cjc137_5717"
    INDEX 01 01:25:53
  TRACK 106 AUDIO
    TITLE "0:"
    INDEX 01 01:26:68
  TRACK 107 AUDIO
    TITLE "5:cjc137_5718"
    INDEX 01 01:27:01
  TRACK 108 AUDIO
    TITLE "0:"
    INDEX 01 01:27:67
  TRACK 109 AUDIO
    TITLE "4:cjc137_5719"
    INDEX 01 01:29:01
  TRACK 110 AUDIO
    TITLE "0:"
    INDEX 01 01:30:03
  TRACK 111 AUDIO
    TITLE "6:cjc137_5720"
    INDEX 01 01:30:13
  TRACK 112 AUDIO
    TITLE "0:"
    INDEX 01 01:31:65
  TRACK 113 AUDIO
    TITLE "5:cjc137_5721"
    INDEX 01 01:31:71
  TRACK 114 AUDIO
    TITLE "0:"
    INDEX 01 01:32:72
  TRACK 115 AUDIO
    TITLE "4:cjc137_5722"
    INDEX 01 01:34:06
  TRACK 116 AUDIO
    TITLE "0:"
    INDEX 01 01:35:29
  TRACK 117 AUDIO
    TITLE "6:cjc137_5723"
    INDEX 01 01:35:39
  TRACK 118 AUDIO
    TITLE "0:"
    INDEX 01 01:36:68
  TRACK 119 AUDIO
    TITLE "5:cjc137_5724"
    INDEX 01 01:36:70
  TRACK 120 AUDIO
    TITLE "0:"
    INDEX 01 01:38:20
